# xmcd
#
# Track frame offsets:
#	150
#	16935
#	33069
#	50079
#	67162
#	82801
#	98071
#	114621
#	129494
#	147129
#	163636
#	180202
#	192416
#	207728
#	220436
#	237154
#	259509
#	288059
#
# Disc length: 4099 seconds
#
# Revision: 1
# Processed by: cddbd v1.5.2PL0 Copyright (c) Steve Scherf et al.
# Submitted via: audiograbber 1.83.01
#
DISCID=fb100112
DTITLE=Various Artist - CDX 060
DYEAR=1993
DGENRE=Country
TTITLE0=John Michael Montgomery - Beer And Bones
TTITLE1=Hank Williams Jr. - Both Sides Of Goodbye
TTITLE2=Robert Ellis Orral - Every Day When I Get Home
TTITLE3=Shawn Camp - Fallin' Never Felt So Good
TTITLE4=Dolly Parton - Full Circle
TTITLE5=Aaron Neville - The Grand Tour
TTITLE6=Terry McBride and The Ride - Hurry Sundown
TTITLE7=Travis Tritt - Looking Out For Number One
TTITLE8=Patty Loveless - Nothin' But The Wheel
TTITLE9=Wynonna - Only Love
TTITLE10=The Bellamy Brothers - Rip Off The Knob
TTITLE11=Dean Chance - Standing Up For Freedom
TTITLE12=Sawyer Brown - Thank God For You
TTITLE13=Diamond Rio - This Romeo Ain't Got Julie Yet
TTITLE14=Ronnie Milsap - True Believer
TTITLE15=Ronnie Milsap - True Believer [Album Version]
TTITLE16=The Bellamy Brothers - Rip Off The Knob [Dance Trax]
TTITLE17=Pam Tillis - Cleopatra, Queen of Denial [Club Mix]
EXTD=
EXTT0=
EXTT1=
EXTT2=
EXTT3=
EXTT4=
EXTT5=
EXTT6=
EXTT7=
EXTT8=
EXTT9=
EXTT10=
EXTT11=
EXTT12=
EXTT13=
EXTT14=
EXTT15=
EXTT16=
EXTT17=
PLAYORDER=
